<svg width="211" height="61" viewBox="0 0 211 61" fill="none" xmlns="http://www.w3.org/2000/svg">
<path d="M208.873 53.6614C208.873 56.8938 206.199 59.5122 202.891 59.5122H7.15582C3.85012 59.5122 1.16687 56.8938 1.16687 53.6614V7.00298C1.16687 3.77205 3.85012 1.14453 7.15582 1.14453H202.89C206.199 1.14453 208.871 3.77205 208.871 7.00298L208.873 53.6614Z" fill="black"/>
<path d="M202.26 1.21503C205.862 1.21503 208.793 4.07157 208.793 7.58207V53.0744C208.793 56.5849 205.862 59.4414 202.26 59.4414H7.77923C4.17745 59.4414 1.24661 56.5849 1.24661 53.0744V7.58207C1.24661 4.07157 4.17745 1.21503 7.77923 1.21503H202.26ZM202.26 0H7.77923C3.50259 0 0 3.41382 0 7.58207V53.0744C0 57.2427 3.50259 60.6565 7.77923 60.6565H202.26C206.537 60.6565 210.04 57.2427 210.04 53.0744V7.58207C210.04 3.41382 206.537 0 202.26 0Z" fill="#A6A6A6"/>
<path d="M46.8742 30.0008C46.8291 25.1134 50.9801 22.7357 51.17 22.6249C48.8191 19.2842 45.1753 18.8279 43.8949 18.7915C40.8344 18.4775 37.866 20.5762 36.307 20.5762C34.7169 20.5762 32.3162 18.8218 29.7288 18.8734C26.3994 18.9234 23.2846 20.8022 21.5762 23.7198C18.0506 29.6687 20.6801 38.4108 24.0578 43.2194C25.7474 45.5743 27.7218 48.2037 30.3061 48.1112C32.8343 48.0096 33.7787 46.5403 36.8297 46.5403C39.8527 46.5403 40.7396 48.1112 43.3751 48.0521C46.0886 48.0096 47.7969 45.6865 49.4274 43.3104C51.3799 40.6111 52.1641 37.9529 52.1952 37.8163C52.1315 37.7952 46.9255 35.8587 46.8742 30.0008Z" fill="white"/>
<path d="M41.8955 15.6282C43.2554 13.9708 44.1857 11.7159 43.9275 9.42761C41.9593 9.51253 39.498 10.7545 38.0806 12.3755C36.8265 13.8039 35.7063 16.1453 35.9958 18.3472C38.2066 18.5078 40.4765 17.2599 41.8955 15.6282Z" fill="white"/>
<path d="M83.4634 47.7728H79.9301L77.9945 41.845H71.2671L69.4234 47.7728H65.9834L72.6487 27.5923H76.7654L83.4634 47.7728ZM77.4111 39.3581L75.6608 34.0886C75.4757 33.5502 75.1287 32.2826 74.6168 30.2869H74.5546C74.3507 31.1452 74.0225 32.4129 73.5713 34.0886L71.852 39.3581H77.4111Z" fill="white"/>
<path d="M100.604 40.3183C100.604 42.793 99.9181 44.7493 98.5457 46.1854C97.3166 47.4636 95.7904 48.102 93.9685 48.102C92.0019 48.102 90.5892 47.4136 89.7289 46.0366H89.6665V53.7021H86.3496V38.0118C86.3496 36.4559 86.3076 34.8592 86.2266 33.2215H89.1438L89.329 35.5279H89.3912C90.4974 33.7902 92.1762 32.9227 94.4291 32.9227C96.1902 32.9227 97.6606 33.6006 98.8368 34.9578C100.016 36.3165 100.604 38.1028 100.604 40.3183ZM97.2249 40.4366C97.2249 39.0202 96.8982 37.8526 96.2416 36.9337C95.5243 35.9753 94.5613 35.4962 93.354 35.4962C92.5356 35.4962 91.7919 35.763 91.1275 36.2892C90.4616 36.8199 90.026 37.513 89.8221 38.3713C89.7195 38.7715 89.6681 39.0991 89.6681 39.3568V41.7831C89.6681 42.8416 90.0011 43.7347 90.667 44.4641C91.3328 45.1936 92.198 45.5575 93.2622 45.5575C94.5114 45.5575 95.4839 45.0874 96.1793 44.1503C96.8764 43.2115 97.2249 41.9742 97.2249 40.4366Z" fill="white"/>
<path d="M117.776 40.3183C117.776 42.793 117.09 44.7493 115.717 46.1854C114.489 47.4636 112.963 48.102 111.141 48.102C109.174 48.102 107.762 47.4136 106.903 46.0366H106.84V53.7021H103.523V38.0118C103.523 36.4559 103.481 34.8592 103.401 33.2215H106.318L106.503 35.5279H106.565C107.67 33.7902 109.349 32.9227 111.603 32.9227C113.362 32.9227 114.833 33.6006 116.012 34.9578C117.187 36.3165 117.776 38.1028 117.776 40.3183ZM114.397 40.4366C114.397 39.0202 114.069 37.8526 113.412 36.9337C112.695 35.9753 111.735 35.4962 110.526 35.4962C109.706 35.4962 108.964 35.763 108.298 36.2892C107.632 36.8199 107.198 37.513 106.994 38.3713C106.893 38.7715 106.84 39.0991 106.84 39.3568V41.7831C106.84 42.8416 107.173 43.7347 107.836 44.4641C108.502 45.1921 109.367 45.5575 110.434 45.5575C111.684 45.5575 112.656 45.0874 113.352 44.1503C114.049 43.2115 114.397 41.9742 114.397 40.4366Z" fill="white"/>
<path d="M136.975 42.1136C136.975 43.8302 136.364 45.2269 135.136 46.3051C133.787 47.4833 131.909 48.0717 129.496 48.0717C127.268 48.0717 125.482 47.653 124.13 46.8144L124.899 44.1198C126.355 44.9781 127.953 45.4088 129.694 45.4088C130.943 45.4088 131.916 45.1328 132.614 44.5838C133.31 44.0349 133.657 43.2979 133.657 42.379C133.657 41.5602 133.37 40.8702 132.796 40.3106C132.225 39.7511 131.271 39.231 129.94 38.7503C126.315 37.4325 124.504 35.5021 124.504 32.9636C124.504 31.3047 125.138 29.9444 126.409 28.8859C127.676 27.826 129.366 27.2968 131.478 27.2968C133.362 27.2968 134.928 27.6167 136.177 28.2551L135.348 30.8907C134.181 30.272 132.861 29.9627 131.385 29.9627C130.218 29.9627 129.306 30.2432 128.653 30.8013C128.101 31.3 127.824 31.9081 127.824 32.6284C127.824 33.4261 128.139 34.0857 128.774 34.6044C129.327 35.0836 130.33 35.6021 131.786 36.1616C133.568 36.8608 134.876 37.6782 135.718 38.6152C136.557 39.5493 136.975 40.7185 136.975 42.1136Z" fill="white"/>
<path d="M147.943 35.6478H144.287V42.7127C144.287 44.5096 144.931 45.4073 146.221 45.4073C146.814 45.4073 147.306 45.3573 147.696 45.2572L147.788 47.7123C147.134 47.9503 146.274 48.0702 145.208 48.0702C143.898 48.0702 142.874 47.6804 142.135 46.9026C141.399 46.1231 141.029 44.8159 141.029 42.9796V35.6447H138.85V33.2184H141.029V30.5541L144.287 29.5956V33.2184H147.943V35.6478Z" fill="white"/>
<path d="M164.439 40.3773C164.439 42.614 163.783 44.4503 162.473 45.8864C161.099 47.365 159.275 48.102 157.003 48.102C154.812 48.102 153.067 47.3937 151.767 45.9775C150.466 44.5611 149.816 42.7732 149.816 40.6184C149.816 38.3636 150.485 36.5165 151.827 35.0804C153.167 33.6429 154.976 32.9242 157.248 32.9242C159.439 32.9242 161.202 33.6323 162.532 35.0501C163.805 36.4255 164.439 38.2012 164.439 40.3773ZM160.998 40.482C160.998 39.14 160.703 37.989 160.107 37.0291C159.413 35.8675 158.418 35.2883 157.13 35.2883C155.796 35.2883 154.784 35.869 154.088 37.0291C153.492 37.9904 153.198 39.1597 153.198 40.5426C153.198 41.8846 153.492 43.0355 154.088 43.994C154.806 45.1556 155.808 45.7348 157.1 45.7348C158.367 45.7348 159.361 45.1434 160.078 43.9636C160.69 42.9855 160.998 41.8224 160.998 40.482Z" fill="white"/>
<path d="M175.222 36.0647C174.893 36.0055 174.543 35.9753 174.176 35.9753C173.009 35.9753 172.107 36.4045 171.472 37.2642C170.919 38.0225 170.642 38.9808 170.642 40.1379V47.7729H167.327L167.358 37.804C167.358 36.1269 167.316 34.5999 167.233 33.2229H170.123L170.244 36.0071H170.336C170.686 35.0503 171.238 34.28 171.994 33.7022C172.733 33.1821 173.531 32.9227 174.392 32.9227C174.698 32.9227 174.975 32.944 175.222 32.9819V36.0647Z" fill="white"/>
<path d="M190.056 39.8085C190.056 40.3878 190.017 40.876 189.934 41.2747H179.984C180.023 42.7124 180.503 43.8118 181.428 44.5699C182.266 45.2478 183.351 45.5875 184.682 45.5875C186.155 45.5875 187.5 45.3585 188.709 44.899L189.228 47.1434C187.816 47.7438 186.148 48.0425 184.224 48.0425C181.908 48.0425 180.091 47.3783 178.769 46.0515C177.449 44.7246 176.788 42.9429 176.788 40.7077C176.788 38.5134 177.403 36.6861 178.634 35.2288C179.922 33.673 181.663 32.8952 183.853 32.8952C186.005 32.8952 187.633 33.673 188.74 35.2288C189.615 36.4648 190.056 37.9933 190.056 39.8085ZM186.894 38.9699C186.915 38.0115 186.699 37.1836 186.25 36.4845C185.675 35.5853 184.792 35.1364 183.606 35.1364C182.522 35.1364 181.638 35.5746 180.966 36.4542C180.413 37.1532 180.085 37.9917 179.984 38.9683H186.894V38.9699Z" fill="white"/>
<path d="M76.3144 15.1778C76.3144 16.9626 75.7651 18.3062 74.6683 19.2084C73.6523 20.0409 72.2085 20.4579 70.3383 20.4579C69.4111 20.4579 68.6176 20.4185 67.9532 20.3396V10.5876C68.8199 10.4511 69.7533 10.3813 70.7616 10.3813C72.543 10.3813 73.8856 10.7589 74.7912 11.5141C75.8056 12.3678 76.3144 13.5885 76.3144 15.1778ZM74.5952 15.2218C74.5952 14.0647 74.2808 13.1776 73.6523 12.5589C73.0237 11.9417 72.1058 11.6324 70.8969 11.6324C70.3834 11.6324 69.9463 11.6658 69.5838 11.7355V19.1492C69.7845 19.1795 70.1517 19.1932 70.6853 19.1932C71.9331 19.1932 72.8961 18.8551 73.5744 18.1788C74.2528 17.5024 74.5952 16.5168 74.5952 15.2218Z" fill="white"/>
<path d="M85.4303 16.7369C85.4303 17.8364 85.1082 18.7371 84.4641 19.4436C83.7887 20.17 82.8942 20.5326 81.777 20.5326C80.7005 20.5326 79.8432 20.1853 79.2037 19.4877C78.5658 18.7916 78.2469 17.9136 78.2469 16.8551C78.2469 15.7482 78.5751 14.8399 79.2349 14.1347C79.8945 13.4296 80.7814 13.0762 81.8984 13.0762C82.9751 13.0762 83.8401 13.4236 84.4951 14.1196C85.1175 14.7959 85.4303 15.6694 85.4303 16.7369ZM83.739 16.7885C83.739 16.1289 83.5928 15.5633 83.3018 15.0916C82.9596 14.5215 82.4725 14.2363 81.8394 14.2363C81.1844 14.2363 80.6864 14.5215 80.3442 15.0916C80.0517 15.5633 79.907 16.1379 79.907 16.8173C79.907 17.4769 80.0532 18.0425 80.3442 18.5142C80.6973 19.0843 81.189 19.3694 81.8237 19.3694C82.4461 19.3694 82.9346 19.0798 83.2863 18.499C83.5881 18.0183 83.739 17.4482 83.739 16.7885Z" fill="white"/>
<path d="M97.6525 13.2218L95.3576 20.3701H93.864L92.9133 17.2661C92.6721 16.4911 92.4761 15.7208 92.3237 14.9565H92.2941C92.1526 15.742 91.9565 16.5109 91.7045 17.2661L90.6947 20.3701H89.1839L87.0261 13.2218H88.7016L89.531 16.62C89.7316 17.4237 89.8965 18.1895 90.0288 18.9144H90.0584C90.1797 18.3169 90.3804 17.5557 90.6636 16.6352L91.7045 13.2232H93.0331L94.0304 16.5625C94.2716 17.3767 94.4676 18.1608 94.6186 18.9159H94.6637C94.774 18.1805 94.9407 17.3964 95.1615 16.5625L96.0514 13.2232H97.6525V13.2218Z" fill="white"/>
<path d="M106.106 20.3702H104.475V16.2759C104.475 15.0142 103.983 14.3835 102.997 14.3835C102.513 14.3835 102.123 14.5563 101.819 14.9036C101.519 15.2508 101.366 15.6603 101.366 16.1288V20.3686H99.7358V15.2644C99.7358 14.6367 99.7157 13.9558 99.6768 13.2187H101.11L101.186 14.3364H101.231C101.421 13.9892 101.704 13.7026 102.076 13.4736C102.518 13.2067 103.012 13.0717 103.554 13.0717C104.239 13.0717 104.808 13.287 105.261 13.7193C105.824 14.2485 106.106 15.0385 106.106 16.0879V20.3702Z" fill="white"/>
<path d="M110.603 20.3702H108.973V9.9418H110.603V20.3702Z" fill="white"/>
<path d="M120.202 16.7369C120.202 17.8364 119.88 18.7371 119.236 19.4436C118.56 20.17 117.664 20.5326 116.549 20.5326C115.471 20.5326 114.613 20.1853 113.975 19.4877C113.338 18.7916 113.019 17.9136 113.019 16.8551C113.019 15.7482 113.347 14.8399 114.007 14.1347C114.666 13.4296 115.553 13.0762 116.669 13.0762C117.747 13.0762 118.61 13.4236 119.267 14.1196C119.889 14.7959 120.202 15.6694 120.202 16.7369ZM118.509 16.7885C118.509 16.1289 118.363 15.5633 118.072 15.0916C117.731 14.5215 117.243 14.2363 116.611 14.2363C115.955 14.2363 115.457 14.5215 115.116 15.0916C114.823 15.5633 114.679 16.1379 114.679 16.8173C114.679 17.4769 114.825 18.0425 115.116 18.5142C115.469 19.0843 115.961 19.3694 116.595 19.3694C117.218 19.3694 117.705 19.0798 118.056 18.499C118.36 18.0183 118.509 17.4482 118.509 16.7885Z" fill="white"/>
<path d="M128.094 20.3702H126.63L126.508 19.5469H126.463C125.962 20.2034 125.248 20.5326 124.321 20.5326C123.628 20.5326 123.068 20.3157 122.647 19.885C122.264 19.4938 122.072 19.007 122.072 18.4292C122.072 17.5557 122.446 16.8901 123.197 16.4291C123.947 15.9681 125.002 15.7422 126.36 15.7527V15.6194C126.36 14.6776 125.853 14.2075 124.837 14.2075C124.114 14.2075 123.476 14.3849 122.925 14.7367L122.594 13.6935C123.275 13.2825 124.117 13.0762 125.11 13.0762C127.026 13.0762 127.988 14.0619 127.988 16.0334V18.6658C127.988 19.38 128.024 19.9487 128.094 20.3702ZM126.401 17.9136V16.8112C124.602 16.7809 123.703 17.2616 123.703 18.2518C123.703 18.6248 123.806 18.9038 124.016 19.0904C124.226 19.2769 124.493 19.3694 124.812 19.3694C125.17 19.3694 125.505 19.2587 125.81 19.0388C126.116 18.8174 126.304 18.5369 126.374 18.1927C126.392 18.1154 126.401 18.0213 126.401 17.9136Z" fill="white"/>
<path d="M137.358 20.3702H135.911L135.835 19.2223H135.79C135.328 20.0957 134.54 20.5324 133.434 20.5324C132.55 20.5324 131.814 20.1942 131.231 19.518C130.648 18.8416 130.357 17.9636 130.357 16.8854C130.357 15.7284 130.673 14.7912 131.307 14.0756C131.922 13.4083 132.675 13.0746 133.571 13.0746C134.556 13.0746 135.245 13.3978 135.637 14.0453H135.668V9.9418H137.3V18.4443C137.3 19.1404 137.319 19.7818 137.358 20.3702ZM135.668 17.3555V16.1637C135.668 15.9574 135.653 15.7906 135.623 15.6633C135.531 15.281 135.334 14.9597 135.034 14.7003C134.73 14.441 134.365 14.3106 133.943 14.3106C133.335 14.3106 132.859 14.5457 132.508 15.0172C132.161 15.4889 131.986 16.0909 131.986 16.8263C131.986 17.533 132.152 18.1061 132.487 18.5474C132.84 19.0175 133.316 19.2526 133.912 19.2526C134.447 19.2526 134.875 19.0569 135.2 18.6642C135.514 18.3018 135.668 17.8651 135.668 17.3555Z" fill="white"/>
<path d="M151.303 16.7369C151.303 17.8364 150.981 18.7371 150.337 19.4436C149.661 20.17 148.769 20.5326 147.65 20.5326C146.575 20.5326 145.718 20.1853 145.077 19.4877C144.439 18.7916 144.12 17.9136 144.12 16.8551C144.12 15.7482 144.448 14.8399 145.108 14.1347C145.768 13.4296 146.655 13.0762 147.773 13.0762C148.848 13.0762 149.715 13.4236 150.369 14.1196C150.991 14.7959 151.303 15.6694 151.303 16.7369ZM149.613 16.7885C149.613 16.1289 149.467 15.5633 149.177 15.0916C148.833 14.5215 148.347 14.2363 147.712 14.2363C147.058 14.2363 146.561 14.5215 146.217 15.0916C145.924 15.5633 145.781 16.1379 145.781 16.8173C145.781 17.4769 145.926 18.0425 146.217 18.5142C146.571 19.0843 147.062 19.3694 147.696 19.3694C148.32 19.3694 148.81 19.0798 149.161 18.499C149.461 18.0183 149.613 17.4482 149.613 16.7885Z" fill="white"/>
<path d="M160.07 20.3702H158.441V16.2759C158.441 15.0142 157.95 14.3835 156.962 14.3835C156.478 14.3835 156.088 14.5563 155.786 14.9036C155.483 15.2508 155.332 15.6603 155.332 16.1288V20.3686H153.701V15.2644C153.701 14.6367 153.682 13.9558 153.643 13.2187H155.074L155.151 14.3364H155.196C155.387 13.9892 155.67 13.7026 156.04 13.4736C156.484 13.2067 156.977 13.0717 157.521 13.0717C158.204 13.0717 158.773 13.287 159.226 13.7193C159.79 14.2485 160.07 15.0385 160.07 16.0879V20.3702Z" fill="white"/>
<path d="M171.044 14.4123H169.249V17.8849C169.249 18.7674 169.568 19.2087 170.199 19.2087C170.492 19.2087 170.734 19.1845 170.925 19.1345L170.967 20.3399C170.645 20.4582 170.222 20.5174 169.701 20.5174C169.057 20.5174 168.556 20.3263 168.193 19.9442C167.829 19.5621 167.649 18.9191 167.649 18.0168V14.4123H166.578V13.2219H167.649V11.9117L169.247 11.4417V13.2203H171.043V14.4123H171.044Z" fill="white"/>
<path d="M179.675 20.3702H178.044V16.3062C178.044 15.0248 177.552 14.3833 176.567 14.3833C175.811 14.3833 175.294 14.7549 175.012 15.4979C174.962 15.6542 174.935 15.8452 174.935 16.0696V20.3686H173.306V9.9418H174.935V14.25H174.965C175.48 13.4659 176.215 13.0746 177.169 13.0746C177.844 13.0746 178.403 13.2901 178.846 13.7222C179.398 14.2605 179.675 15.0611 179.675 16.1196V20.3702Z" fill="white"/>
<path d="M188.58 16.4578C188.58 16.7428 188.558 16.9824 188.519 17.1781H183.629C183.651 17.8846 183.885 18.423 184.337 18.7961C184.75 19.1297 185.284 19.2965 185.938 19.2965C186.662 19.2965 187.321 19.1843 187.916 18.9583L188.171 20.0623C187.475 20.3565 186.657 20.5036 185.709 20.5036C184.573 20.5036 183.679 20.1776 183.032 19.5254C182.381 18.8734 182.059 17.9984 182.059 16.9005C182.059 15.8223 182.359 14.9246 182.965 14.2089C183.596 13.4446 184.45 13.0625 185.529 13.0625C186.583 13.0625 187.385 13.4446 187.926 14.2089C188.364 14.8154 188.58 15.566 188.58 16.4578ZM187.024 16.0469C187.037 15.5752 186.93 15.1689 186.708 14.826C186.425 14.3848 185.994 14.1634 185.41 14.1634C184.878 14.1634 184.444 14.3787 184.114 14.8109C183.843 15.1552 183.682 15.566 183.629 16.0469H187.024Z" fill="white"/>
</svg>
