<svg width="100" height="100" viewBox="0 0 100 100" fill="none" xmlns="http://www.w3.org/2000/svg">
<circle cx="50" cy="50" r="50" fill="#00362A"/>
<path d="M66.0701 44.9965H55.0035V33.9299C55.0035 31.211 52.7199 28.9855 50 28.9855C47.2802 28.9855 44.9966 31.211 44.9966 33.9299V44.9965H33.9299C31.2111 44.9965 28.9855 47.2801 28.9855 50C28.9855 52.7198 31.2111 55.0034 33.9299 55.0034H44.9966V66.07C44.9966 68.7889 47.2802 71.0145 50 71.0145C52.7199 71.0145 55.0035 68.7889 55.0035 66.07V55.0034H66.0701C68.789 55.0034 71.0145 52.7198 71.0145 50C71.0145 47.2801 68.789 44.9965 66.0701 44.9965Z" fill="#BAFA3D"/>
</svg>
