<svg width="211" height="61" viewBox="0 0 211 61" fill="none" xmlns="http://www.w3.org/2000/svg">
<path d="M202.449 60.6565H8.23509C3.96434 60.6565 0.466553 57.2427 0.466553 53.0744V7.58206C0.466553 3.41383 3.96434 0 8.23509 0H202.449C206.72 0 210.217 3.41383 210.217 7.58206V53.0744C210.217 57.2427 206.72 60.6565 202.449 60.6565Z" fill="black"/>
<path d="M202.449 1.21502C206.045 1.21502 208.972 4.07157 208.972 7.58206V53.0744C208.972 56.5849 206.045 59.4414 202.449 59.4414H8.23509C4.63825 59.4414 1.71146 56.5849 1.71146 53.0744V7.58206C1.71146 4.07157 4.63825 1.21502 8.23509 1.21502H202.449ZM202.449 0H8.23509C3.96434 0 0.466553 3.41383 0.466553 7.58206V53.0744C0.466553 57.2427 3.96434 60.6565 8.23509 60.6565H202.449C206.72 60.6565 210.217 57.2427 210.217 53.0744V7.58206C210.217 3.41383 206.72 0 202.449 0Z" fill="#A6A6A6"/>
<path d="M74.1399 15.5336C74.1399 16.7998 73.7514 17.8139 72.9863 18.5703C72.1064 19.4669 70.9605 19.918 69.5564 19.918C68.2144 19.918 67.0685 19.4592 66.1285 18.5551C65.1866 17.6376 64.7166 16.5118 64.7166 15.1639C64.7166 13.8163 65.1866 12.6903 66.1285 11.7805C67.0685 10.8688 68.2144 10.41 69.5564 10.41C70.2245 10.41 70.8615 10.5446 71.4694 10.7948C72.0754 11.0469 72.5687 11.3881 72.926 11.8089L72.1142 12.6088C71.4908 11.8904 70.6421 11.536 69.5564 11.536C68.5776 11.536 67.7289 11.8696 67.0083 12.5425C66.2956 13.2173 65.9383 14.0911 65.9383 15.1639C65.9383 16.2369 66.2956 17.1183 67.0083 17.793C67.7289 18.4584 68.5776 18.7996 69.5564 18.7996C70.5956 18.7996 71.4694 18.4584 72.1589 17.7855C72.6134 17.34 72.8716 16.7259 72.9396 15.9412H69.5564V14.8456H74.07C74.1244 15.0825 74.1399 15.3118 74.1399 15.5336Z" fill="white"/>
<path d="M81.2998 11.7353H77.0602V14.6164H80.8824V15.712H77.0602V18.5932H81.2998V19.7097H75.86V10.6188H81.2998V11.7353Z" fill="white"/>
<path d="M86.354 19.7097H85.1537V11.7353H82.5531V10.6188H88.9565V11.7353H86.354V19.7097Z" fill="white"/>
<path d="M93.5904 19.7097V10.6188H94.7886V19.7097H93.5904Z" fill="white"/>
<path d="M100.1 19.7097H98.9096V11.7353H96.2993V10.6188H102.71V11.7353H100.1V19.7097Z" fill="white"/>
<path d="M114.833 18.5399C113.914 19.4592 112.776 19.918 111.419 19.918C110.053 19.918 108.915 19.4592 107.996 18.5399C107.08 17.6224 106.623 16.4965 106.623 15.1639C106.623 13.8315 107.08 12.7055 107.996 11.7881C108.915 10.8688 110.053 10.41 111.419 10.41C112.768 10.41 113.906 10.8688 114.825 11.7957C115.749 12.7207 116.206 13.839 116.206 15.1639C116.206 16.4965 115.75 17.6224 114.833 18.5399ZM108.884 17.778C109.575 18.4584 110.416 18.7996 111.419 18.7996C112.413 18.7996 113.262 18.4584 113.945 17.778C114.635 17.0974 114.984 16.2236 114.984 15.1639C114.984 14.1044 114.635 13.2305 113.945 12.5501C113.262 11.8696 112.413 11.5284 111.419 11.5284C110.416 11.5284 109.575 11.8696 108.884 12.5501C108.195 13.2305 107.845 14.1044 107.845 15.1639C107.845 16.2236 108.195 17.0974 108.884 17.778Z" fill="white"/>
<path d="M117.89 19.7097V10.6188H119.347L123.876 17.6891H123.928L123.876 15.9415V10.6188H125.074V19.7097H123.823L119.081 12.2907H119.028L119.081 14.0459V19.7097H117.89Z" fill="white"/>
<path d="M106.328 32.9858C102.679 32.9858 99.6974 35.6963 99.6974 39.4363C99.6974 43.1457 102.679 45.8848 106.328 45.8848C109.985 45.8848 112.966 43.1457 112.966 39.4363C112.966 35.6963 109.985 32.9858 106.328 32.9858ZM106.328 43.3447C104.326 43.3447 102.603 41.7317 102.603 39.4363C102.603 37.1104 104.326 35.5257 106.328 35.5257C108.33 35.5257 110.061 37.1104 110.061 39.4363C110.061 41.7317 108.33 43.3447 106.328 43.3447ZM91.861 32.9858C88.2039 32.9858 85.2305 35.6963 85.2305 39.4363C85.2305 43.1457 88.2039 45.8848 91.861 45.8848C95.5161 45.8848 98.4914 43.1457 98.4914 39.4363C98.4914 35.6963 95.5161 32.9858 91.861 32.9858ZM91.861 43.3447C89.8567 43.3447 88.1282 41.7317 88.1282 39.4363C88.1282 37.1104 89.8567 35.5257 91.861 35.5257C93.8633 35.5257 95.586 37.1104 95.586 39.4363C95.586 41.7317 93.8633 43.3447 91.861 43.3447ZM74.6458 34.9629V37.7037H81.352C81.1558 39.2353 80.6315 40.3612 79.8274 41.146C78.8486 42.0938 77.3241 43.1457 74.6458 43.1457C70.5188 43.1457 67.2872 39.8949 67.2872 35.867C67.2872 31.839 70.5188 28.5882 74.6458 28.5882C76.8773 28.5882 78.501 29.4392 79.6994 30.5425L81.6783 28.6109C80.0023 27.049 77.7726 25.8492 74.6458 25.8492C68.9865 25.8492 64.2302 30.3435 64.2302 35.867C64.2302 41.3906 68.9865 45.8848 74.6458 45.8848C77.7048 45.8848 80.0023 44.9067 81.8085 43.0718C83.6593 41.2655 84.2361 38.7254 84.2361 36.6745C84.2361 36.0376 84.1817 35.4518 84.0846 34.9629H74.6458ZM145.04 37.0876C144.495 35.6452 142.811 32.9858 139.381 32.9858C135.982 32.9858 133.153 35.5997 133.153 39.4363C133.153 43.049 135.953 45.8848 139.707 45.8848C142.743 45.8848 144.495 44.0784 145.215 43.0263L142.962 41.561C142.211 42.634 141.187 43.3447 139.707 43.3447C138.237 43.3447 137.183 42.6871 136.507 41.3906L145.346 37.8213L145.04 37.0876ZM136.029 39.2353C135.953 36.7484 138.008 35.4746 139.48 35.4746C140.634 35.4746 141.613 36.0376 141.939 36.8431L136.029 39.2353ZM128.845 45.4924H131.75V26.5372H128.845V45.4924ZM124.087 34.4226H123.99C123.337 33.6682 122.092 32.9858 120.515 32.9858C117.206 32.9858 114.18 35.8214 114.18 39.4571C114.18 43.0718 117.206 45.8848 120.515 45.8848C122.092 45.8848 123.337 45.1967 123.99 44.4196H124.087V45.3446C124.087 47.8106 122.737 49.1355 120.56 49.1355C118.785 49.1355 117.683 47.8845 117.229 46.8326L114.702 47.8618C115.431 49.5716 117.359 51.6756 120.56 51.6756C123.966 51.6756 126.841 49.7194 126.841 44.9597V33.3782H124.087V34.4226ZM120.764 43.3447C118.761 43.3447 117.085 41.7089 117.085 39.4571C117.085 37.1843 118.761 35.5257 120.764 35.5257C122.737 35.5257 124.293 37.1843 124.293 39.4571C124.293 41.7089 122.737 43.3447 120.764 43.3447ZM158.643 26.5372H151.694V45.4924H154.592V38.3104H158.643C161.861 38.3104 165.018 36.0376 165.018 32.4228C165.018 28.81 161.854 26.5372 158.643 26.5372ZM158.719 35.6736H154.592V29.174H158.719C160.882 29.174 162.118 30.9272 162.118 32.4228C162.118 33.89 160.882 35.6736 158.719 35.6736ZM176.632 32.9498C174.538 32.9498 172.361 33.852 171.465 35.8519L174.036 36.9038C174.59 35.8519 175.608 35.5106 176.684 35.5106C178.188 35.5106 179.712 36.392 179.735 37.9483V38.1473C179.21 37.8516 178.087 37.4137 176.707 37.4137C173.937 37.4137 171.115 38.9016 171.115 41.6786C171.115 44.2186 173.383 45.8544 175.934 45.8544C177.884 45.8544 178.96 44.9958 179.636 43.9969H179.735V45.4621H182.533V38.1909C182.533 34.8301 179.962 32.9498 176.632 32.9498ZM176.282 43.3372C175.334 43.3372 174.013 42.8786 174.013 41.7317C174.013 40.2645 175.66 39.7017 177.085 39.7017C178.362 39.7017 178.96 39.9765 179.735 40.3385C179.507 42.0938 177.96 43.3372 176.282 43.3372ZM192.729 33.3648L189.398 41.5819H189.3L185.856 33.3648H182.732L187.905 44.848L184.954 51.2377H187.981L195.954 33.3648H192.729ZM166.61 45.4924H169.515V26.5372H166.61V45.4924Z" fill="white"/>
<path d="M16.68 11.4318C16.2235 11.8981 15.9594 12.6241 15.9594 13.5642V47.0997C15.9594 48.0399 16.2235 48.7659 16.68 49.2322L16.7927 49.3345L36.047 30.5499V30.1065L16.7927 11.3218L16.68 11.4318Z" fill="url(#paint0_linear_7_64)"/>
<path d="M42.4571 36.8145L36.0461 30.5499V30.1063L42.4649 23.8417L42.6086 23.9231L50.2102 28.1445C52.3795 29.3424 52.3795 31.3138 50.2102 32.5193L42.6086 36.7331L42.4571 36.8145Z" fill="url(#paint1_linear_7_64)"/>
<path d="M42.6089 36.7331L36.0465 30.3282L16.6796 49.2322C17.4001 49.9715 18.5751 50.0605 19.9112 49.3212L42.6089 36.7331Z" fill="url(#paint2_linear_7_64)"/>
<path d="M42.6089 23.9233L19.9112 11.3352C18.5751 10.6035 17.4001 10.6926 16.6796 11.4319L36.0465 30.3282L42.6089 23.9233Z" fill="url(#paint3_linear_7_64)"/>
<defs>
<linearGradient id="paint0_linear_7_64" x1="34.3373" y1="47.4489" x2="8.89584" y2="21.3817" gradientUnits="userSpaceOnUse">
<stop stop-color="#00A0FF"/>
<stop offset="0.0066" stop-color="#00A1FF"/>
<stop offset="0.2601" stop-color="#00BEFF"/>
<stop offset="0.5122" stop-color="#00D2FF"/>
<stop offset="0.7604" stop-color="#00DFFF"/>
<stop offset="1" stop-color="#00E3FF"/>
</linearGradient>
<linearGradient id="paint1_linear_7_64" x1="53.0351" y1="30.3259" x2="15.4402" y2="30.3259" gradientUnits="userSpaceOnUse">
<stop stop-color="#FFE000"/>
<stop offset="0.4087" stop-color="#FFBD00"/>
<stop offset="0.7754" stop-color="#FFA500"/>
<stop offset="1" stop-color="#FF9C00"/>
</linearGradient>
<linearGradient id="paint2_linear_7_64" x1="39.0406" y1="26.8464" x2="4.53969" y2="-8.50295" gradientUnits="userSpaceOnUse">
<stop stop-color="#FF3A44"/>
<stop offset="1" stop-color="#C31162"/>
</linearGradient>
<linearGradient id="paint3_linear_7_64" x1="11.8045" y1="60.3893" x2="27.2106" y2="44.6045" gradientUnits="userSpaceOnUse">
<stop stop-color="#32A071"/>
<stop offset="0.0685" stop-color="#2DA771"/>
<stop offset="0.4762" stop-color="#15CF74"/>
<stop offset="0.8009" stop-color="#06E775"/>
<stop offset="1" stop-color="#00F076"/>
</linearGradient>
</defs>
</svg>
