<svg width="154" height="154" viewBox="0 0 154 154" fill="none" xmlns="http://www.w3.org/2000/svg">
<circle cx="76.9854" cy="76.8625" r="76.8625" fill="#000D0A"/>
<path d="M105.691 28.1869L65.7395 40.4096C60.8993 41.7904 56.9761 46.8392 56.9761 51.6793V93.2378C56.9761 93.2378 56.9761 93.806 56.9761 93.8203C56.9761 93.8203 54.0814 91.8677 47.6338 92.7811C38.1657 94.126 30.4883 101.393 30.4883 109.017C30.4883 116.64 38.1657 121.311 47.6338 119.967C57.1092 118.629 64.053 111.584 64.053 103.957C64.053 103.957 64.053 71.3564 64.053 67.9762C64.053 64.596 68.1164 63.1468 68.1164 63.1468L103.439 52.0749C103.439 52.0749 107.348 50.7624 107.348 54.3799C107.348 57.9974 107.348 83.259 107.348 83.259C107.348 83.259 107.348 83.2662 107.348 83.2806C107.348 83.2806 103.749 81.2093 97.3012 81.9932C87.833 83.1404 80.1557 90.2568 80.1557 97.8766C80.1557 105.504 87.833 110.329 97.3012 109.179C106.777 108.032 114.454 100.919 114.454 93.2917V34.4511C114.454 29.6109 110.527 26.8061 105.691 28.1869Z" fill="#BAFA3D"/>
</svg>
