<svg width="100" height="100" viewBox="0 0 100 100" fill="none" xmlns="http://www.w3.org/2000/svg">
<circle cx="50" cy="50" r="50" fill="#00362A"/>
<path d="M61.015 43.5146C61.015 42.0848 62.1729 40.927 63.6026 40.927C65.0324 40.927 66.1902 42.0848 66.1902 43.5146C66.1902 44.9443 65.0324 46.1022 63.6026 46.1022C62.1729 46.1022 61.015 44.9443 61.015 43.5146ZM36.3975 46.1022C37.8272 46.1022 38.9851 44.9443 38.9851 43.5146C38.9851 42.0848 37.8272 40.927 36.3975 40.927C34.9677 40.927 33.8099 42.0848 33.8099 43.5146C33.7998 44.9443 34.9677 46.1022 36.3975 46.1022ZM25.3624 54.4993V32.5298C25.3624 30.1738 27.2754 28.2607 29.6314 28.2607H70.3586C72.7146 28.2607 74.6277 30.1738 74.6277 32.5298V54.4993C74.6277 56.8554 72.7146 58.7684 70.3586 58.7684H29.6314C27.2854 58.7684 25.3624 56.8554 25.3624 54.4993ZM29.0072 50.0692C29.2488 50.0289 29.5106 49.9987 29.7623 49.9987C32.1485 49.9987 34.0817 51.9319 34.0817 54.3181C34.0817 54.5899 34.0515 54.8517 34.0112 55.1135H65.6264C65.6063 54.9423 65.5962 54.7611 65.5962 54.5799C65.5962 52.1936 67.5294 50.2605 69.9156 50.2605C70.2881 50.2605 70.6405 50.3108 70.9829 50.3914V37.1513C70.6405 37.2419 70.2881 37.2821 69.9156 37.2821C67.5294 37.2821 65.5962 35.349 65.5962 32.9627C65.5962 32.6003 65.6465 32.2479 65.7271 31.9055H34.0112C34.0616 32.1673 34.0817 32.4291 34.0817 32.701C34.0817 35.0872 32.1485 37.0204 29.7623 37.0204C29.5005 37.0204 29.2488 37.0002 29.0072 36.9499V50.0692ZM72.8153 61.6581H27.2552C26.2484 61.6581 25.4328 62.4736 25.4328 63.4805C25.4328 64.4873 26.2484 65.3029 27.2552 65.3029H72.8153C73.8222 65.3029 74.6377 64.4873 74.6377 63.4805C74.6377 62.4736 73.8222 61.6581 72.8153 61.6581ZM72.8153 68.2731H27.2552C26.2484 68.2731 25.4328 69.0886 25.4328 70.0955C25.4328 71.1023 26.2484 71.9179 27.2552 71.9179H72.8153C73.8222 71.9179 74.6377 71.1023 74.6377 70.0955C74.6377 69.0886 73.8222 68.2731 72.8153 68.2731ZM40.6464 43.5146C40.6464 38.3595 44.845 34.1609 50 34.1609C55.1551 34.1609 59.3537 38.3595 59.3537 43.5146C59.3537 48.6696 55.1551 52.8682 50 52.8682C44.845 52.8682 40.6464 48.6696 40.6464 43.5146ZM45.2175 43.8267L46.9694 45.5887L48.7818 47.4111L50.6042 45.5987L54.7826 41.4404L52.9703 39.618L48.7918 43.7763L47.0399 42.0144L45.2175 43.8267Z" fill="#BAFA3D"/>
</svg>
