<svg width="100" height="100" viewBox="0 0 100 100" fill="none" xmlns="http://www.w3.org/2000/svg">
<circle cx="50" cy="50" r="50" fill="#00362A"/>
<path d="M60.0806 42.1574C58.7812 42.1574 57.5708 41.7796 56.5502 41.13L46.2496 48.3215C46.415 48.8988 46.5054 49.5077 46.5054 50.1379C46.5054 50.7683 46.415 51.3772 46.2496 51.9544L56.2721 58.9518C57.3475 58.1879 58.661 57.7373 60.0806 57.7373C63.7179 57.7373 66.6666 60.686 66.6666 64.3233C66.6666 67.9606 63.718 70.9094 60.0806 70.9094C56.4433 70.9094 53.4946 67.9607 53.4946 64.3234C53.4946 63.843 53.5475 63.3752 53.6451 62.9241L43.3681 55.749C42.3649 56.3668 41.1841 56.724 39.9194 56.724C36.282 56.724 33.3333 53.7753 33.3333 50.1379C33.3333 46.5006 36.2819 43.5519 39.9194 43.5519C41.184 43.5519 42.3649 43.9091 43.3681 44.5269L53.7244 37.2964C53.5755 36.7464 53.4946 36.1684 53.4946 35.5713C53.4946 31.934 56.4433 28.9853 60.0806 28.9853C63.718 28.9853 66.6667 31.934 66.6667 35.5713C66.6667 39.2086 63.718 42.1574 60.0806 42.1574Z" fill="#BAFA3D"/>
</svg>
