<svg width="254" height="41" viewBox="0 0 254 41" fill="none" xmlns="http://www.w3.org/2000/svg">
<g clip-path="url(#clip0_7_3)">
<path d="M37.2971 1.57066C36.9565 0.900422 36.3613 0.391017 35.6418 0.154014C34.9222 -0.082989 34.1371 -0.0282713 33.4583 0.306183C33.3083 0.38014 33.1651 0.466777 33.0303 0.565126L7.97573 12.8829L7.43115 11.798C7.33435 11.606 7.16441 11.4599 6.95873 11.3918C6.75304 11.3238 6.52844 11.3393 6.33435 11.4351C6.22431 11.4874 6.12814 11.5644 6.05346 11.66C6.02878 11.6928 6.00582 11.7269 5.98467 11.7621L3.75284 15.0905L1.55541 18.3642C1.48841 18.4327 1.43465 18.5128 1.39682 18.6004C1.34878 18.7087 1.32537 18.826 1.32824 18.9442C1.3311 19.0624 1.36017 19.1785 1.4134 19.2843C1.46662 19.3901 1.54269 19.4831 1.63624 19.5567C1.72979 19.6302 1.83853 19.6825 1.95477 19.7099C2.04837 19.7333 2.14548 19.7397 2.24139 19.7288L6.20632 19.9632L10.2018 20.207L10.3929 20.2184C10.5273 20.2108 10.6578 20.1706 10.7727 20.1013C10.8877 20.0319 10.9835 19.9355 11.0518 19.8207C11.12 19.7059 11.1585 19.5762 11.1639 19.4431C11.1693 19.31 11.1414 19.1777 11.0827 19.0578L8.42477 13.7656L10.5095 17.9162L36.0092 5.36975C36.689 5.03454 37.2064 4.44614 37.4479 3.73381C37.6894 3.02148 37.6351 2.24346 37.2971 1.57066Z" fill="#BAFA3D"/>
<path d="M0.292381 39.4123C0.626881 40.0841 1.2165 40.5977 1.93251 40.841C2.64852 41.0843 3.43276 41.0375 4.114 40.7108C4.26412 40.6368 4.4079 40.5508 4.54393 40.4538L29.6806 28.2796L30.2195 29.3664C30.2808 29.4889 30.3723 29.5941 30.4855 29.6723C30.5988 29.7505 30.7301 29.7992 30.8674 29.8139C31.0048 29.8286 31.1436 29.8088 31.2712 29.7563C31.3987 29.7039 31.5108 29.6205 31.5972 29.5139C31.6223 29.4813 31.6453 29.4472 31.666 29.4118L33.915 26.1004L36.1315 22.8399C36.199 22.7722 36.2534 22.6927 36.292 22.6056C36.3404 22.4974 36.3643 22.38 36.362 22.2617C36.3597 22.1434 36.3312 22.027 36.2786 21.9207C36.226 21.8144 36.1505 21.7209 36.0574 21.6465C35.9643 21.5722 35.8559 21.5189 35.7398 21.4904C35.6467 21.468 35.5504 21.4616 35.4551 21.4715L31.4902 21.2069L27.4966 20.9385L27.3055 20.9253C27.1933 20.931 27.0834 20.9593 26.9826 21.0084C26.8854 21.0545 26.7984 21.1191 26.7265 21.1986C26.6546 21.278 26.5994 21.3707 26.5639 21.4714C26.5283 21.572 26.5133 21.6786 26.5196 21.785C26.5258 21.8914 26.5533 21.9956 26.6004 22.0915L29.2258 27.3837L27.1679 23.2255L1.60511 35.6227C0.923467 35.9535 0.402397 36.5384 0.156281 37.2489C-0.0898362 37.9594 -0.0408876 38.7375 0.292381 39.4123Z" fill="#BAFA3D"/>
<path d="M54.3377 27.7126L58.3122 22.9873C60.1771 24.473 62.5293 25.5144 64.4765 25.5144C66.5783 25.5144 67.4764 24.834 67.4764 23.6697C67.4764 22.426 66.1389 22.0253 63.9089 21.1426L60.6224 19.7742C57.7848 18.6515 55.3103 16.2851 55.3103 12.5124C55.3103 8.05936 59.365 4.40958 65.1242 4.40958C68.1261 4.40958 71.4509 5.53229 73.8853 7.90059L70.3981 12.2232C68.6134 10.9796 67.0713 10.3331 65.1242 10.3331C63.4217 10.3331 62.3669 10.9361 62.3669 12.0985C62.3669 13.3422 63.8669 13.7845 66.2612 14.7068L69.4637 15.9505C72.7503 17.2339 74.6229 19.4812 74.6229 23.0913C74.6229 27.5047 70.891 31.4361 64.3217 31.4361C60.9892 31.4399 57.1753 30.2359 54.3377 27.7126Z" fill="#BAFA3D"/>
<path d="M79.6808 18.3604V4.88211H86.6572V19.1637C86.6572 23.8171 87.8743 25.5012 90.6316 25.5012C93.3889 25.5012 94.6864 23.8171 94.6864 19.1637V4.88211H101.42V18.3604C101.42 27.2665 98.0131 31.4399 90.6316 31.4399C83.2502 31.4399 79.6808 27.2665 79.6808 18.3604Z" fill="#BAFA3D"/>
<path d="M108.115 4.88211H117.606C123.121 4.88211 127.583 6.24487 127.583 11.3803C127.583 13.6276 126.285 16.1943 124.256 16.9976V17.1583C126.771 17.8803 128.8 19.8044 128.8 23.2558C128.8 28.6312 124.096 30.9579 118.417 30.9579H108.115V4.88211ZM117.444 15.0716C119.714 15.0716 120.769 14.0283 120.769 12.4255C120.769 10.8227 119.714 10.1782 117.444 10.1782H115.092V15.0735L117.444 15.0716ZM117.929 25.6562C120.689 25.6562 121.986 24.6941 121.986 22.7681C121.986 20.8421 120.689 20.122 117.929 20.122H115.092V25.6581L117.929 25.6562Z" fill="#BAFA3D"/>
<path d="M131.517 27.7126L135.492 22.9873C137.357 24.473 139.711 25.5144 141.656 25.5144C143.758 25.5144 144.658 24.834 144.658 23.6697C144.658 22.426 143.32 22.0253 141.088 21.1426L137.804 19.7742C134.964 18.6515 132.492 16.2851 132.492 12.5124C132.492 8.05936 136.546 4.40958 142.306 4.40958C145.308 4.40958 148.632 5.53229 151.067 7.90059L147.578 12.2232C145.793 10.9796 144.253 10.3331 142.306 10.3331C140.603 10.3331 139.548 10.9361 139.548 12.0985C139.548 13.3422 141.048 13.7845 143.441 14.7068L146.645 15.9505C149.93 17.2339 151.804 19.4812 151.804 23.0913C151.804 27.5047 148.072 31.4361 141.501 31.4361C138.169 31.4399 134.357 30.2359 131.517 27.7126Z" fill="#BAFA3D"/>
<path d="M157.028 4.88211H164.003V14.5897H171.872V4.88211H178.852V30.9655H171.872V20.6077H164.003V30.9579H157.028V4.88211Z" fill="#BAFA3D"/>
<path d="M190.406 4.88211H198.843L206.868 30.9655H199.488L196.488 18.281C195.841 15.7936 195.191 12.624 194.543 10.0175H194.381C193.808 12.6636 193.164 15.7936 192.516 18.281L189.514 30.9579H182.375L190.406 4.88211ZM188.134 20.0861H201.032V25.4218H188.134V20.0861Z" fill="#BAFA3D"/>
<path d="M209.998 4.88211H219.974C225.651 4.88211 230.52 6.80812 230.52 13.3063C230.52 19.6041 225.651 22.2124 219.974 22.2124H216.972V30.9579H209.998V4.88211ZM219.485 16.75C222.244 16.75 223.704 15.5479 223.704 13.3006C223.704 11.0533 222.244 10.3313 219.485 10.3313H216.97V16.7576L219.485 16.75ZM218.721 20.4017L223.425 15.8277L231.984 30.9484H224.195L218.721 20.4017Z" fill="#BAFA3D"/>
<path d="M236.558 4.88211H253.591V10.6582H243.535V14.7503H252.133V20.5302H243.535V25.1855H253.998V30.9617H236.558V4.88211Z" fill="#BAFA3D"/>
</g>
<defs>
<clipPath id="clip0_7_3">
<rect width="254" height="41" fill="white"/>
</clipPath>
</defs>
</svg>
