<svg width="154" height="154" viewBox="0 0 154 154" fill="none" xmlns="http://www.w3.org/2000/svg">
<circle cx="76.8625" cy="76.8625" r="76.8625" fill="#000D0A"/>
<path d="M113.595 59.4402H56.5438L56.4527 59.4761H39.4974C37.5985 59.4761 36.0591 61.0154 36.0591 62.9144V67.504V114.798V114.834L36.0608 114.832C36.0791 116.715 37.6099 118.237 39.4976 118.237H113.595C115.494 118.237 117.033 116.698 117.033 114.798V62.8786C117.033 60.9797 115.494 59.4402 113.595 59.4402ZM55.0003 76.6072H42.9819L48.9911 63.4561H61.0092L55.0003 76.6072ZM72.9697 63.4561H84.988L78.9788 76.6072H66.9607L72.9697 63.4561ZM87.4967 95.5393L74.57 104.928C74.0568 105.301 73.4482 105.491 72.837 105.491C72.3798 105.491 71.921 105.385 71.4984 105.169C70.5104 104.666 69.8886 103.651 69.8886 102.542V83.7652C69.8886 82.6566 70.5104 81.6416 71.4984 81.1381C72.4861 80.6346 73.6729 80.7277 74.57 81.3794L87.4967 90.7678C88.2607 91.3225 88.7126 92.2095 88.7126 93.1535C88.7124 94.0979 88.2603 94.9843 87.4967 95.5393ZM102.958 76.6072H90.9394L96.9487 63.4561H108.967L102.958 76.6072Z" fill="#BAFA3D"/>
<path d="M39.3402 56.6881H113.416C115.228 56.6881 116.697 54.9536 116.697 52.814V39.9333C116.697 37.7935 115.228 36.059 113.416 36.059H39.3402C37.5278 36.059 36.059 37.7935 36.059 39.9333V52.8138C36.059 54.9536 37.5276 56.6881 39.3402 56.6881ZM96.9484 39.798H108.966L102.957 52.9491H90.9392L96.9484 39.798ZM72.9697 39.798H84.988L78.9788 52.9491H66.9607L72.9697 39.798ZM48.9912 39.798H61.0093L55.0003 52.9491H42.9818L48.9912 39.798Z" fill="#BAFA3D"/>
</svg>
